<svg width="20" height="20" viewBox="0 0 20 20" fill="none" xmlns="http://www.w3.org/2000/svg">
<path d="M10.7601 5.42002V12.08C10.7601 12.5 10.4201 12.84 10.0001 12.84C9.58009 12.84 9.26009 12.5 9.26009 12.08V5.42002L6.74009 7.64002C6.44009 7.92002 5.96009 7.90002 5.70009 7.58002C5.42009 7.28002 5.44009 6.80002 5.76009 6.52002L9.50009 3.20002C9.78009 2.94002 10.2001 2.94002 10.5001 3.18002C10.5001 3.20002 10.5001 3.20002 10.5001 3.20002L14.2401 6.52002C14.5601 6.80002 14.5801 7.28002 14.3201 7.58002C14.0401 7.90002 13.5601 7.92002 13.2601 7.64002L10.7601 5.42002ZM15.1601 14.08C15.1601 13.66 15.5001 13.34 15.9201 13.34C16.3401 13.34 16.6601 13.66 16.6601 14.08V15.92C16.6601 16.32 16.3401 16.66 15.9201 16.66H4.08009C3.68009 16.66 3.34009 16.32 3.34009 15.92V14.08C3.34009 13.66 3.68009 13.34 4.08009 13.34C4.50009 13.34 4.84009 13.66 4.84009 14.08V15.16H15.1601V14.08Z" fill="#38AEE0"/>
</svg>
