<svg width="20" height="20" viewBox="0 0 20 20" fill="none" xmlns="http://www.w3.org/2000/svg">
<path d="M9.24016 14.934L9.24016 8.27397C9.24016 7.85397 9.58016 7.51397 10.0002 7.51397C10.4202 7.51397 10.7402 7.85397 10.7402 8.27397L10.7402 14.934L13.2602 12.714C13.5602 12.434 14.0402 12.454 14.3002 12.774C14.5802 13.074 14.5602 13.554 14.2402 13.834L10.5002 17.154C10.2202 17.414 9.80016 17.414 9.50015 17.174C9.50015 17.154 9.50015 17.154 9.50015 17.154L5.76016 13.834C5.44015 13.554 5.42015 13.074 5.68016 12.774C5.96015 12.454 6.44016 12.434 6.74015 12.714L9.24016 14.934ZM4.84016 6.27397C4.84016 6.69397 4.50016 7.01397 4.08016 7.01397C3.66016 7.01397 3.34015 6.69397 3.34015 6.27397L3.34015 4.43397C3.34015 4.03397 3.66016 3.69397 4.08016 3.69397L15.9202 3.69397C16.3202 3.69397 16.6602 4.03397 16.6602 4.43397L16.6602 6.27397C16.6602 6.69397 16.3202 7.01398 15.9202 7.01398C15.5002 7.01398 15.1602 6.69397 15.1602 6.27397L15.1602 5.19397L4.84016 5.19397L4.84016 6.27397Z" fill="#38AEE0"/>
</svg>
