<svg width="16" height="17" viewBox="0 0 16 17" fill="none" xmlns="http://www.w3.org/2000/svg">
<path d="M7.2 12.1641H8.8V7.36406H7.2V12.1641ZM8 5.76406C8.22667 5.76406 8.41667 5.6874 8.57 5.53406C8.72333 5.38073 8.8 5.19073 8.8 4.96406C8.8 4.7374 8.72333 4.5474 8.57 4.39406C8.41667 4.24073 8.22667 4.16406 8 4.16406C7.77333 4.16406 7.58333 4.24073 7.43 4.39406C7.27667 4.5474 7.2 4.7374 7.2 4.96406C7.2 5.19073 7.27667 5.38073 7.43 5.53406C7.58333 5.6874 7.77333 5.76406 8 5.76406ZM8 16.1641C6.89333 16.1641 5.85333 15.9541 4.88 15.5341C3.90667 15.1141 3.06 14.5441 2.34 13.8241C1.62 13.1041 1.05 12.2574 0.63 11.2841C0.21 10.3107 0 9.27073 0 8.16406C0 7.0574 0.21 6.0174 0.63 5.04406C1.05 4.07073 1.62 3.22406 2.34 2.50406C3.06 1.78406 3.90667 1.21406 4.88 0.794062C5.85333 0.374062 6.89333 0.164062 8 0.164062C9.10667 0.164062 10.1467 0.374062 11.12 0.794062C12.0933 1.21406 12.94 1.78406 13.66 2.50406C14.38 3.22406 14.95 4.07073 15.37 5.04406C15.79 6.0174 16 7.0574 16 8.16406C16 9.27073 15.79 10.3107 15.37 11.2841C14.95 12.2574 14.38 13.1041 13.66 13.8241C12.94 14.5441 12.0933 15.1141 11.12 15.5341C10.1467 15.9541 9.10667 16.1641 8 16.1641Z" fill="#9CA3AF"/>
</svg>
