<svg width="100" height="6" viewBox="0 0 100 6" fill="none" xmlns="http://www.w3.org/2000/svg">
<path d="M0.57015 3C0.57015 4.47276 1.76406 5.66667 3.23682 5.66667C4.70958 5.66667 5.90348 4.47276 5.90348 3C5.90348 1.52724 4.70958 0.333333 3.23682 0.333333C1.76406 0.333333 0.57015 1.52724 0.57015 3ZM99.0476 3L94.0476 0.113249V5.88675L99.0476 3ZM3.23682 3V3.5H4.23485V3V2.5H3.23682V3ZM6.2309 3V3.5H8.22696V3V2.5H6.2309V3ZM10.223 3V3.5H12.2191V3V2.5H10.223V3ZM14.2151 3V3.5H16.2112V3V2.5H14.2151V3ZM18.2072 3V3.5H20.2033V3V2.5H18.2072V3ZM22.1994 3V3.5H24.1954V3V2.5H22.1994V3ZM26.1915 3V3.5H28.1875V3V2.5H26.1915V3ZM30.1836 3V3.5H32.1797V3V2.5H30.1836V3ZM34.1757 3V3.5H36.1718V3V2.5H34.1757V3ZM38.1678 3V3.5H40.1639V3V2.5H38.1678V3ZM42.1599 3V3.5H44.156V3V2.5H42.1599V3ZM46.1521 3V3.5H48.1481V3V2.5H46.1521V3ZM50.1442 3V3.5H52.1402V3V2.5H50.1442V3ZM54.1363 3V3.5H56.1324V3V2.5H54.1363V3ZM58.1284 3V3.5H60.1245V3V2.5H58.1284V3ZM62.1205 3V3.5H64.1166V3V2.5H62.1205V3ZM66.1127 3V3.5H68.1087V3V2.5H66.1127V3ZM70.1048 3V3.5H72.1008V3V2.5H70.1048V3ZM74.0969 3V3.5H76.0929V3V2.5H74.0969V3ZM78.089 3V3.5H80.0851V3V2.5H78.089V3ZM82.0811 3V3.5H84.0772V3V2.5H82.0811V3ZM86.0732 3V3.5H88.0693V3V2.5H86.0732V3ZM90.0653 3V3.5H92.0614V3V2.5H90.0653V3ZM94.0574 3V3.5H96.0535V3V2.5H94.0574V3Z" fill="#0162DD"/>
</svg>
