<svg width="16" height="16" viewBox="0 0 16 16" fill="none" xmlns="http://www.w3.org/2000/svg">
<path d="M7.33325 11.332H8.66659V8.66536H11.3333V7.33203H8.66659V4.66536H7.33325V7.33203H4.66659V8.66536H7.33325V11.332ZM7.99992 14.6654C7.0777 14.6654 6.21103 14.4931 5.39992 14.1487C4.58881 13.7931 3.88325 13.3154 3.28325 12.7154C2.68325 12.1154 2.20547 11.4098 1.84992 10.5987C1.50547 9.78759 1.33325 8.92092 1.33325 7.9987C1.33325 7.07647 1.50547 6.20981 1.84992 5.3987C2.20547 4.58759 2.68325 3.88203 3.28325 3.28203C3.88325 2.68203 4.58881 2.20981 5.39992 1.86536C6.21103 1.50981 7.0777 1.33203 7.99992 1.33203C8.92214 1.33203 9.78881 1.50981 10.5999 1.86536C11.411 2.20981 12.1166 2.68203 12.7166 3.28203C13.3166 3.88203 13.7888 4.58759 14.1333 5.3987C14.4888 6.20981 14.6666 7.07647 14.6666 7.9987C14.6666 8.92092 14.4888 9.78759 14.1333 10.5987C13.7888 11.4098 13.3166 12.1154 12.7166 12.7154C12.1166 13.3154 11.411 13.7931 10.5999 14.1487C9.78881 14.4931 8.92214 14.6654 7.99992 14.6654ZM7.99992 13.332C9.48881 13.332 10.7499 12.8154 11.7833 11.782C12.8166 10.7487 13.3333 9.48759 13.3333 7.9987C13.3333 6.50981 12.8166 5.2487 11.7833 4.21536C10.7499 3.18203 9.48881 2.66536 7.99992 2.66536C6.51103 2.66536 5.24992 3.18203 4.21659 4.21536C3.18325 5.2487 2.66659 6.50981 2.66659 7.9987C2.66659 9.48759 3.18325 10.7487 4.21659 11.782C5.24992 12.8154 6.51103 13.332 7.99992 13.332Z" fill="#38AEE0"/>
</svg>
