<svg width="48" height="6" viewBox="0 0 48 6" fill="none" xmlns="http://www.w3.org/2000/svg">
<path d="M0.51888 3C0.51888 4.47276 1.71279 5.66667 3.18555 5.66667C4.65831 5.66667 5.85221 4.47276 5.85221 3C5.85221 1.52724 4.65831 0.333333 3.18555 0.333333C1.71279 0.333333 0.51888 1.52724 0.51888 3ZM48.0003 3L43.0003 0.113249V5.88675L48.0003 3ZM3.18555 3V3.5H4.20406V3V2.5H3.18555V3ZM6.2411 3V3.5H8.27813V3V2.5H6.2411V3ZM10.3152 3V3.5H12.3522V3V2.5H10.3152V3ZM14.3892 3V3.5H16.4263V3V2.5H14.3892V3ZM18.4633 3V3.5H20.5003V3V2.5H18.4633V3ZM22.5374 3V3.5H24.5744V3V2.5H22.5374V3ZM26.6114 3V3.5H28.6485V3V2.5H26.6114V3ZM30.6855 3V3.5H32.7225V3V2.5H30.6855V3ZM34.7596 3V3.5H36.7966V3V2.5H34.7596V3ZM38.8336 3V3.5H40.8707V3V2.5H38.8336V3ZM42.9077 3V3.5H44.9447V3V2.5H42.9077V3Z" fill="#0162DD"/>
</svg>
