<svg width="18" height="18" viewBox="0 0 18 18" fill="none" xmlns="http://www.w3.org/2000/svg">
<path d="M9 17C13.4183 17 17 13.4183 17 9C17 4.58172 13.4183 1 9 1C4.58172 1 1 4.58172 1 9C1 13.4183 4.58172 17 9 17Z" fill="white" stroke="#0162DD" stroke-width="2"/>
<path d="M9.58949 3.75C8.28341 3.75 7.22425 4.7571 7.22425 6.00015C7.22425 7.2432 8.28341 8.2503 9.58949 8.2503C10.8956 8.2503 11.9547 7.24268 11.9547 6.00015C11.9547 4.75763 10.8961 3.75 9.58949 3.75ZM9.58949 9.30442C7.81347 9.30442 4.26782 10.1526 4.26782 11.8356V13.2418H14.9107V11.8356C14.9107 10.1526 11.3661 9.30442 9.58949 9.30442Z" fill="#0162DD"/>
</svg>
